<?xml version="1.0" encoding="utf-8"?>
<!-- Generator: Adobe Illustrator 23.0.4, SVG Export Plug-In . SVG Version: 6.00 Build 0)  -->
<svg version="1.1" id="Layer_1" xmlns="http://www.w3.org/2000/svg" xmlns:xlink="http://www.w3.org/1999/xlink" x="0px" y="0px"
	 viewBox="0 0 146.1 190" style="enable-background:new 0 0 146.1 190;" xml:space="preserve">
<path id="J-Symbol" d="M72.32,185c40.98,0,68.78-28.78,68.78-68.78V95h-35.61v21.22c0,20.98-12.93,34.63-33.17,34.63
	c-19.02,0-30-11.95-31.95-28.78H5C6.95,158.9,33.54,185,72.32,185L72.32,185z M105.49,72.56h35.61V5H71.59v33.66h33.9V72.56z"/>
<g>
	<path d="M124.77,184.25l0.17-0.8c0.42,0.14,0.82,0.26,1.21,0.35c0.38,0.09,0.8,0.13,1.25,0.13c0.55,0,1-0.11,1.35-0.33
		c0.35-0.22,0.52-0.56,0.52-1.02c0-0.38-0.1-0.68-0.3-0.92c-0.2-0.24-0.58-0.41-1.13-0.51l-0.63-0.13c-0.8-0.16-1.38-0.42-1.74-0.77
		c-0.36-0.35-0.54-0.87-0.54-1.53c0-0.68,0.25-1.24,0.76-1.66c0.51-0.43,1.18-0.64,2.02-0.64c0.42,0,0.83,0.05,1.24,0.15
		c0.41,0.1,0.75,0.23,1.02,0.37l-0.2,0.78c-0.68-0.25-1.34-0.37-1.98-0.37c-0.52,0-0.96,0.1-1.32,0.3c-0.35,0.2-0.53,0.54-0.53,1
		c0,0.36,0.1,0.65,0.32,0.87c0.21,0.22,0.58,0.38,1.12,0.5l0.63,0.13c0.8,0.16,1.38,0.43,1.74,0.81c0.36,0.38,0.54,0.88,0.54,1.52
		c0,0.58-0.14,1.04-0.41,1.39c-0.28,0.35-0.63,0.6-1.06,0.75c-0.44,0.15-0.9,0.23-1.39,0.23c-0.55,0-1.05-0.06-1.5-0.18
		C125.48,184.53,125.09,184.4,124.77,184.25z M132.71,184.62h-1.02c0.16-1.33,0.35-2.67,0.57-4s0.45-2.67,0.7-4h1.11l2.09,5.98
		l2.09-5.98h1.13c0.25,1.33,0.47,2.67,0.68,4s0.4,2.67,0.58,4h-1.04c-0.13-1.07-0.27-2.14-0.42-3.21c-0.15-1.07-0.32-2.13-0.51-3.21
		l-2.04,5.87h-0.91l-2.02-5.85c-0.19,1.07-0.36,2.14-0.51,3.2C133,182.48,132.85,183.55,132.71,184.62z"/>
</g>
</svg>
